<?xml version="1.0" encoding="UTF-8"?>
<svg id="Camada_1" data-name="Camada 1" xmlns="http://www.w3.org/2000/svg" viewBox="0 0 924.79 174.37">
  <defs>
    <style>
      .cls-1, .cls-2 {
        fill: none;
        stroke: white;
      }

      .cls-2 {
        font-family: Bahnschrift-Bold, Bahnschrift;
        font-size: 154.92px;
        font-variation-settings: 'wght' 700, 'wdth' 100;
        font-weight: 700;
      }

      .cls-3 {
        letter-spacing: -.01em;
      }

      .cls-4 {
        letter-spacing: 0em;
      }
    </style>
  </defs>
  <text class="cls-2" transform="translate(0 132.46)"><tspan x="0" y="0">Fo</tspan><tspan class="cls-3" x="171.04" y="0">c</tspan><tspan class="cls-4" x="246.3" y="0">us Timer</tspan></text>
  <g>
    <path class="cls-1" d="m892.79,67.96c-17.67,0-32,14.33-32,32s14.33,32,32,32,32-14.33,32-32-14.33-32-32-32Zm2.42,59.06v-2.15c0-1.34-1.08-2.42-2.42-2.42s-2.41,1.08-2.41,2.42v2.15c-13.08-1.16-23.52-11.62-24.65-24.72h2.08c1.33,0,2.41-1.08,2.41-2.42s-1.08-2.42-2.41-2.42h-2.07c1.19-13.02,11.6-23.41,24.64-24.57v2c0,1.34,1.08,2.42,2.41,2.42s2.42-1.08,2.42-2.42v-2c13.03,1.15,23.45,11.54,24.64,24.57h-2.07c-1.34,0-2.42,1.08-2.42,2.42s1.08,2.42,2.42,2.42h2.08c-1.12,13.09-11.57,23.56-24.65,24.72Z"/>
    <path class="cls-1" d="m907.18,84.37l-14.31,14.99s-.05,0-.08,0c-.18,0-.35.02-.52.05l-11.97-9.05c-.79-.59-1.93-.44-2.53.36-.6.79-.45,1.93.35,2.54l11.97,9.04c.12,1.39,1.28,2.49,2.71,2.49,1.5,0,2.72-1.22,2.72-2.72,0-.07,0-.14-.01-.21l14.3-14.99c.69-.73.67-1.87-.06-2.56-.72-.69-1.87-.66-2.56.06Z"/>
  </g>
</svg>