<svg width="48" height="48" viewBox="0 0 48 48" fill="none" xmlns="http://www.w3.org/2000/svg">
<path d="M24 47.5C20.6612 47.5 17.5673 46.9013 14.7128 45.7086C11.8507 44.5128 9.36583 42.8587 7.25355 40.7464C5.14128 38.6342 3.48716 36.1493 2.29135 33.2872C1.09871 30.4327 0.5 27.3388 0.5 24C0.5 20.702 1.09841 17.628 2.29135 14.7728C3.48716 11.9107 5.14128 9.42583 7.25355 7.31355C9.36643 5.20067 11.8522 3.53613 14.7154 2.32022C17.5693 1.10831 20.6623 0.5 24 0.5C27.2969 0.5 30.37 1.108 33.2246 2.32022C36.0878 3.53613 38.5736 5.20067 40.6864 7.31355C42.7993 9.42643 44.4639 11.9122 45.6798 14.7754C46.892 17.63 47.5 20.7031 47.5 24C47.5 27.3377 46.8917 30.4307 45.6798 33.2846C44.4639 36.1478 42.7993 38.6336 40.6864 40.7464C38.5742 42.8587 36.0893 44.5128 33.2272 45.7086C30.372 46.9016 27.298 47.5 24 47.5ZM24 44.9C29.925 44.9 34.9045 42.9026 38.9036 38.9036C42.9026 34.9045 44.9 29.925 44.9 24C44.9 18.075 42.9026 13.0955 38.9036 9.09645C34.9045 5.09743 29.925 3.1 24 3.1C18.075 3.1 13.0955 5.09743 9.09645 9.09645C5.09743 13.0955 3.1 18.075 3.1 24C3.1 29.925 5.09743 34.9045 9.09645 38.9036C13.0955 42.9026 18.075 44.9 24 44.9ZM32.5 15.5V32.5H15.5V15.5H32.5Z" fill="#9c38e8" stroke="#BB86FC"/>
</svg>
